<?xml version="1.0" encoding="utf-8"?>
<!-- Generator: Adobe Illustrator 23.0.0, SVG Export Plug-In . SVG Version: 6.00 Build 0)  -->
<svg version="1.1" id="Layer_1" xmlns="http://www.w3.org/2000/svg" xmlns:xlink="http://www.w3.org/1999/xlink" x="0px" y="0px"
	 viewBox="0 0 20 21.7" style="enable-background:new 0 0 20 21.7;" xml:space="preserve">
<style type="text/css">
	.st0{fill:#FFFFFF;}
</style>
<g id="XMLID_240_">
	<path id="XMLID_241_" class="st0" d="M2.2,4.8h15.3c1.1,0,1.9-0.8,1.9-1.9S18.6,1,17.5,1H2.2C1.2,0.9,0.3,1.8,0.3,2.9
		S1.2,4.8,2.2,4.8z"/>
	<path id="XMLID_242_" class="st0" d="M17.5,8.8H2.2c-1.1,0-1.9,0.8-1.9,1.9s0.8,1.9,1.9,1.9h15.3c1.1,0,1.9-0.8,1.9-1.9
		S18.6,8.8,17.5,8.8z"/>
	<path id="XMLID_243_" class="st0" d="M17.5,16.5H2.2c-1.1,0-1.9,0.8-1.9,1.9s0.8,1.9,1.9,1.9h15.3c1.1,0,1.9-0.8,1.9-1.9
		S18.6,16.5,17.5,16.5z"/>
</g>
</svg>
